<?xml version="1.0" encoding="UTF-8"?>
<svg width="287px" height="303px" viewBox="0 0 287 303" version="1.1" xmlns="http://www.w3.org/2000/svg" xmlns:xlink="http://www.w3.org/1999/xlink">
    <!-- Generator: Sketch 63 (92445) - https://sketch.com -->
    <title>female3</title>
    <desc>Created with Sketch.</desc>
    <g id="Page-1" stroke="none" stroke-width="1" fill="none" fill-rule="evenodd">
        <g id="female3" fill-rule="nonzero">
            <path d="M244.854,260.35 C300.66,204.544 300.66,114.066 244.854,58.261 C189.049,2.4552 98.571,2.4552 42.765,58.261 C-13.0402,114.066 -13.0402,204.544 42.765,260.35 C98.571,316.155 189.049,316.155 244.854,260.35 Z" id="Path" fill="#A4D6D3"></path>
            <polygon id="Path" fill="#3A4348" points="208.7 205.7 77.8 205.7 77.8 73.4 208.7 67.6"></polygon>
            <polygon id="Path" fill="#505458" points="88.7 72.9 77.8 73.4 77.8 205.7 88.7 205.7"></polygon>
            <path d="M254.1,250.2 C227.9,282 188.2,302.2 143.8,302.2 C99.4,302.2 59.8,282 33.5,250.2 C34.7,228.4 40.5,209.5 59.6,197.2 C69.2,191.1 82.5,187 97.4,184.4 C112.2,181.8 128.5,180.8 143.8,180.8 C174.4,180.8 208.8,184.9 228,197.2 C247.1,209.5 252.9,228.4 254.1,250.2 Z" id="Path" fill="#3A4348"></path>
            <path d="M166.9,176.4 L166.9,159.5 L120.8,159.5 L120.8,176.4 C120.8,180 118.9,183.3 115.9,185.4 C111.4,188.5 108.5,196 108.5,203.1 C108.5,221.2 121.9,251.1 143.8,251.1 C166.5,251.1 179.1,221.2 179.1,203.1 C179.1,196 176.2,188.5 171.7,185.4 C168.8,183.3 166.9,180 166.9,176.4 Z" id="Path" fill="#FBCBAB"></path>
            <path d="M166.9,162.6 L166.9,178.5 C159.3,183.5 154.8,185 147.4,185 C138.4,185 133.7,182.7 122.5,174.8 C121.9,174.4 121.4,174 120.8,173.6 L120.8,162.6 C130.7,169.5 135.3,171.5 143.9,171.5 C152.3,171.5 156.9,169.5 166.9,162.6 Z" id="Path" fill="#DB9172"></path>
            <path d="M183.8,109.1 C183.8,101.1 188.3,91.4 193.8,91.4 C199.3,91.4 204.9,92.9 204.9,100.9 C204.9,104.7 203.2,113.3 201.5,117.1 C199.7,121.2 196.6,123.5 193.8,123.5 C188.2,123.5 183.8,117 183.8,109.1 Z" id="Path" fill="#ECA182"></path>
            <path d="M143.8,28.5 C105,28.5 94.4,62 94.4,103.2 C94.4,130.6 103,150.1 118.9,161.3 C130.1,169.2 134.8,171.5 143.8,171.5 C152.8,171.5 157.5,169.2 168.7,161.3 C184.7,150.1 193.2,130.5 193.2,103.2 C193.2,61.9 182.6,28.5 143.8,28.5 Z" id="Path" fill="#FBCBAB"></path>
            <path d="M193,99.5 C192.5,95.9 191.4,92.7 189.7,89.8 C191.4,92.6 192.6,95.8 193,99.5 Z" id="Path" fill="#29235C"></path>
            <path d="M143.8,28.5 C143.1,28.5 142.5,28.5 141.8,28.6 C176,29.8 185.5,62.7 185.5,103.3 C185.5,130.7 177.6,150.2 162.9,161.4 C153.4,168.7 149,171.2 141.8,171.5 C142.5,171.5 143.1,171.5 143.8,171.5 C152.8,171.5 157.5,169.2 168.7,161.3 C184.7,150.1 193.2,130.6 193.2,103.2 C193.2,61.9 182.6,28.5 143.8,28.5 Z" id="Path" fill="#ECA182"></path>
            <path d="M94.4,103.2 C94.4,61.9 119.3,43 119.3,43 C119.3,43 129.4,59.6 147.6,65.3 C169.6,72.3 193.2,81 193.2,103.1 C193.2,106 208.7,80.9 208.7,67.5 C208.7,48 195.2,0.5 143.8,0.5 C84.2,0.5 77.7,53.9 77.7,73.3 C77.7,88 85.8,101.5 94.7,112.5 C94.5,109.5 94.4,106.4 94.4,103.2 Z" id="Path" fill="#3A4348"></path>
            <path d="M118.8,19.7 C95.4,24.7 88.7,65.5 88.7,104.4 C82.5,95.2 77.7,84.6 77.7,73.4 C77.7,54 84.2,0.6 143.8,0.6 C144.6,0.6 145.5,0.6 146.3,0.6 C147,0.6 147.8,0.7 148.5,0.7 C149.1,0.7 149.8,0.8 150.4,0.8 C151.2,0.9 152,0.9 152.7,1 C153.2,1.1 153.7,1.1 154.2,1.2 C154.6,1.3 155,1.3 155.4,1.4 C156,1.5 156.6,1.6 157.2,1.7 C157.9,1.8 158.5,2 159.2,2.1 C159.9,2.2 160.6,2.4 161.2,2.6 C161.8,2.8 162.4,2.9 163,3.1 C163.1,3.1 163.2,3.2 163.3,3.2 C163.8,3.3 164.3,3.5 164.7,3.6 C164.9,3.7 165,3.7 165.2,3.8 C165.8,4 166.3,4.2 166.9,4.4 C167.4,4.6 167.9,4.7 168.3,4.9 C168.6,5 168.9,5.1 169.2,5.3 C169.6,5.5 170,5.6 170.5,5.8 C174.3,7.4 176.7,8.7 178,9.8 C186.5,16.7 147.4,13.6 118.8,19.7 Z" id="Path" fill="#505458"></path>
            <path d="M189.5,89.4 C182.4,78.2 166,74 149.1,70.1 C128.6,65.4 120.6,55.1 120.6,55.1 C120.6,55.1 94.8,68 94.8,112.5 C94.6,109.5 94.4,106.4 94.4,103.2 C94.4,61.9 119.3,43 119.3,43 C119.3,43 129.4,59.6 147.6,65.3 C164.4,70.7 182,77 189.5,89.4 Z" id="Path" fill="#DB9172"></path>
        </g>
    </g>
</svg>